{
	"asset":{
		"generator":"Khronos glTF Blender I/O v4.5.47",
		"version":"2.0"
	},
	"extensionsUsed":[
		"KHR_materials_specular"
	],
	"scene":0,
	"scenes":[
		{
			"name":"Scene",
			"nodes":[
				0
			]
		}
	],
	"nodes":[
		{
			"mesh":0,
			"name":"Cover_29"
		}
	],
	"materials":[
		{
			"doubleSided":true,
			"extensions":{
				"KHR_materials_specular":{
					"specularFactor":0
				}
			},
			"name":"stage_material.002",
			"pbrMetallicRoughness":{
				"baseColorTexture":{
					"index":0
				},
				"metallicFactor":0
			}
		}
	],
	"meshes":[
		{
			"name":"Cover_29",
			"primitives":[
				{
					"attributes":{
						"POSITION":0,
						"NORMAL":1,
						"TEXCOORD_0":2
					},
					"indices":3,
					"material":0
				}
			]
		}
	],
	"textures":[
		{
			"sampler":0,
			"source":0
		}
	],
	"images":[
		{
			"mimeType":"image/png",
			"name":"white",
			"uri":"white.png"
		}
	],
	"accessors":[
		{
			"bufferView":0,
			"componentType":5126,
			"count":844,
			"max":[
				100,
				18.00000762939453,
				100
			],
			"min":[
				0,
				0,
				0
			],
			"type":"VEC3"
		},
		{
			"bufferView":1,
			"componentType":5126,
			"count":844,
			"type":"VEC3"
		},
		{
			"bufferView":2,
			"componentType":5126,
			"count":844,
			"type":"VEC2"
		},
		{
			"bufferView":3,
			"componentType":5123,
			"count":1266,
			"type":"SCALAR"
		}
	],
	"bufferViews":[
		{
			"buffer":0,
			"byteLength":10128,
			"byteOffset":0,
			"target":34962
		},
		{
			"buffer":0,
			"byteLength":10128,
			"byteOffset":10128,
			"target":34962
		},
		{
			"buffer":0,
			"byteLength":6752,
			"byteOffset":20256,
			"target":34962
		},
		{
			"buffer":0,
			"byteLength":2532,
			"byteOffset":27008,
			"target":34963
		}
	],
	"samplers":[
		{
			"magFilter":9729,
			"minFilter":9987
		}
	],
	"buffers":[
		{
			"byteLength":29540,
			"uri":"stage00.bin"
		}
	]
}
