{
	"asset":{
		"generator":"Khronos glTF Blender I/O v4.5.47",
		"version":"2.0"
	},
	"extensionsUsed":[
		"KHR_materials_specular"
	],
	"scene":0,
	"scenes":[
		{
			"name":"Scene",
			"nodes":[
				0,
				1,
				2,
				3,
				4,
				5,
				6,
				7,
				8,
				9,
				10,
				11,
				12,
				13,
				14,
				15,
				16,
				17,
				18,
				19,
				20,
				21,
				22,
				23,
				24,
				25,
				26,
				27,
				28,
				29,
				30,
				31,
				32,
				33,
				34,
				35,
				36,
				37
			]
		}
	],
	"nodes":[
		{
			"mesh":0,
			"name":"EdgeCrate_LN"
		},
		{
			"mesh":1,
			"name":"EdgeCrate_LS"
		},
		{
			"mesh":2,
			"name":"EdgeCrate_RN"
		},
		{
			"mesh":3,
			"name":"EdgeCrate_RS"
		},
		{
			"mesh":4,
			"name":"Ground"
		},
		{
			"mesh":5,
			"name":"L_NE_X"
		},
		{
			"mesh":6,
			"name":"L_NE_Z"
		},
		{
			"mesh":7,
			"name":"L_NW_X"
		},
		{
			"mesh":8,
			"name":"L_NW_Z"
		},
		{
			"mesh":9,
			"name":"L_SE_X"
		},
		{
			"mesh":10,
			"name":"L_SE_Z"
		},
		{
			"mesh":11,
			"name":"L_SW_X"
		},
		{
			"mesh":12,
			"name":"L_SW_Z"
		},
		{
			"mesh":13,
			"name":"MidHigh_N_L"
		},
		{
			"mesh":14,
			"name":"MidHigh_N_R"
		},
		{
			"mesh":15,
			"name":"MidHigh_S_L"
		},
		{
			"mesh":16,
			"name":"MidHigh_S_R"
		},
		{
			"mesh":17,
			"name":"MidLow_E"
		},
		{
			"mesh":18,
			"name":"MidLow_N"
		},
		{
			"mesh":19,
			"name":"MidLow_S"
		},
		{
			"mesh":20,
			"name":"MidLow_W"
		},
		{
			"mesh":21,
			"name":"Monument_Center"
		},
		{
			"mesh":22,
			"name":"SideHigh_L"
		},
		{
			"mesh":23,
			"name":"SideHigh_R"
		},
		{
			"mesh":24,
			"name":"SpawnN_Back"
		},
		{
			"mesh":25,
			"name":"SpawnN_CrateL"
		},
		{
			"mesh":26,
			"name":"SpawnN_CrateR"
		},
		{
			"mesh":27,
			"name":"SpawnN_L"
		},
		{
			"mesh":28,
			"name":"SpawnN_R"
		},
		{
			"mesh":29,
			"name":"SpawnS_Back"
		},
		{
			"mesh":30,
			"name":"SpawnS_CrateL"
		},
		{
			"mesh":31,
			"name":"SpawnS_CrateR"
		},
		{
			"mesh":32,
			"name":"SpawnS_L"
		},
		{
			"mesh":33,
			"name":"SpawnS_R"
		},
		{
			"mesh":34,
			"name":"Wall_E"
		},
		{
			"mesh":35,
			"name":"Wall_N"
		},
		{
			"mesh":36,
			"name":"Wall_S"
		},
		{
			"mesh":37,
			"name":"Wall_W"
		}
	],
	"materials":[
		{
			"doubleSided":true,
			"extensions":{
				"KHR_materials_specular":{
					"specularFactor":0
				}
			},
			"name":"mat_crate",
			"pbrMetallicRoughness":{
				"baseColorTexture":{
					"index":0
				},
				"metallicFactor":0
			}
		},
		{
			"doubleSided":true,
			"extensions":{
				"KHR_materials_specular":{
					"specularFactor":0
				}
			},
			"name":"mat_ground",
			"pbrMetallicRoughness":{
				"baseColorTexture":{
					"index":1
				},
				"metallicFactor":0
			}
		},
		{
			"doubleSided":true,
			"extensions":{
				"KHR_materials_specular":{
					"specularFactor":0
				}
			},
			"name":"mat_wall",
			"pbrMetallicRoughness":{
				"baseColorTexture":{
					"index":2
				},
				"metallicFactor":0
			}
		},
		{
			"doubleSided":true,
			"extensions":{
				"KHR_materials_specular":{
					"specularFactor":0
				}
			},
			"name":"mat_monument",
			"pbrMetallicRoughness":{
				"baseColorTexture":{
					"index":3
				},
				"metallicFactor":0
			}
		}
	],
	"meshes":[
		{
			"name":"EdgeCrate_LN",
			"primitives":[
				{
					"attributes":{
						"POSITION":0,
						"NORMAL":1,
						"TEXCOORD_0":2
					},
					"indices":3,
					"material":0
				}
			]
		},
		{
			"name":"EdgeCrate_LS",
			"primitives":[
				{
					"attributes":{
						"POSITION":4,
						"NORMAL":5,
						"TEXCOORD_0":6
					},
					"indices":3,
					"material":0
				}
			]
		},
		{
			"name":"EdgeCrate_RN",
			"primitives":[
				{
					"attributes":{
						"POSITION":7,
						"NORMAL":8,
						"TEXCOORD_0":9
					},
					"indices":3,
					"material":0
				}
			]
		},
		{
			"name":"EdgeCrate_RS",
			"primitives":[
				{
					"attributes":{
						"POSITION":10,
						"NORMAL":11,
						"TEXCOORD_0":12
					},
					"indices":3,
					"material":0
				}
			]
		},
		{
			"name":"Ground",
			"primitives":[
				{
					"attributes":{
						"POSITION":13,
						"NORMAL":14,
						"TEXCOORD_0":15
					},
					"indices":3,
					"material":1
				}
			]
		},
		{
			"name":"L_NE_X",
			"primitives":[
				{
					"attributes":{
						"POSITION":16,
						"NORMAL":17,
						"TEXCOORD_0":18
					},
					"indices":3,
					"material":2
				}
			]
		},
		{
			"name":"L_NE_Z",
			"primitives":[
				{
					"attributes":{
						"POSITION":19,
						"NORMAL":20,
						"TEXCOORD_0":21
					},
					"indices":3,
					"material":2
				}
			]
		},
		{
			"name":"L_NW_X",
			"primitives":[
				{
					"attributes":{
						"POSITION":22,
						"NORMAL":23,
						"TEXCOORD_0":24
					},
					"indices":3,
					"material":2
				}
			]
		},
		{
			"name":"L_NW_Z",
			"primitives":[
				{
					"attributes":{
						"POSITION":25,
						"NORMAL":26,
						"TEXCOORD_0":27
					},
					"indices":3,
					"material":2
				}
			]
		},
		{
			"name":"L_SE_X",
			"primitives":[
				{
					"attributes":{
						"POSITION":28,
						"NORMAL":29,
						"TEXCOORD_0":30
					},
					"indices":3,
					"material":2
				}
			]
		},
		{
			"name":"L_SE_Z",
			"primitives":[
				{
					"attributes":{
						"POSITION":31,
						"NORMAL":32,
						"TEXCOORD_0":33
					},
					"indices":3,
					"material":2
				}
			]
		},
		{
			"name":"L_SW_X",
			"primitives":[
				{
					"attributes":{
						"POSITION":34,
						"NORMAL":35,
						"TEXCOORD_0":36
					},
					"indices":3,
					"material":2
				}
			]
		},
		{
			"name":"L_SW_Z",
			"primitives":[
				{
					"attributes":{
						"POSITION":37,
						"NORMAL":38,
						"TEXCOORD_0":39
					},
					"indices":3,
					"material":2
				}
			]
		},
		{
			"name":"MidHigh_N_L",
			"primitives":[
				{
					"attributes":{
						"POSITION":40,
						"NORMAL":41,
						"TEXCOORD_0":42
					},
					"indices":3,
					"material":2
				}
			]
		},
		{
			"name":"MidHigh_N_R",
			"primitives":[
				{
					"attributes":{
						"POSITION":43,
						"NORMAL":44,
						"TEXCOORD_0":45
					},
					"indices":3,
					"material":2
				}
			]
		},
		{
			"name":"MidHigh_S_L",
			"primitives":[
				{
					"attributes":{
						"POSITION":46,
						"NORMAL":47,
						"TEXCOORD_0":48
					},
					"indices":3,
					"material":2
				}
			]
		},
		{
			"name":"MidHigh_S_R",
			"primitives":[
				{
					"attributes":{
						"POSITION":49,
						"NORMAL":50,
						"TEXCOORD_0":51
					},
					"indices":3,
					"material":2
				}
			]
		},
		{
			"name":"MidLow_E",
			"primitives":[
				{
					"attributes":{
						"POSITION":52,
						"NORMAL":53,
						"TEXCOORD_0":54
					},
					"indices":3,
					"material":2
				}
			]
		},
		{
			"name":"MidLow_N",
			"primitives":[
				{
					"attributes":{
						"POSITION":55,
						"NORMAL":56,
						"TEXCOORD_0":57
					},
					"indices":3,
					"material":2
				}
			]
		},
		{
			"name":"MidLow_S",
			"primitives":[
				{
					"attributes":{
						"POSITION":58,
						"NORMAL":59,
						"TEXCOORD_0":60
					},
					"indices":3,
					"material":2
				}
			]
		},
		{
			"name":"MidLow_W",
			"primitives":[
				{
					"attributes":{
						"POSITION":61,
						"NORMAL":62,
						"TEXCOORD_0":63
					},
					"indices":3,
					"material":2
				}
			]
		},
		{
			"name":"Monument_Center",
			"primitives":[
				{
					"attributes":{
						"POSITION":64,
						"NORMAL":65,
						"TEXCOORD_0":66
					},
					"indices":3,
					"material":3
				}
			]
		},
		{
			"name":"SideHigh_L",
			"primitives":[
				{
					"attributes":{
						"POSITION":67,
						"NORMAL":68,
						"TEXCOORD_0":69
					},
					"indices":3,
					"material":2
				}
			]
		},
		{
			"name":"SideHigh_R",
			"primitives":[
				{
					"attributes":{
						"POSITION":70,
						"NORMAL":71,
						"TEXCOORD_0":72
					},
					"indices":3,
					"material":2
				}
			]
		},
		{
			"name":"SpawnN_Back",
			"primitives":[
				{
					"attributes":{
						"POSITION":73,
						"NORMAL":74,
						"TEXCOORD_0":75
					},
					"indices":3,
					"material":2
				}
			]
		},
		{
			"name":"SpawnN_CrateL",
			"primitives":[
				{
					"attributes":{
						"POSITION":76,
						"NORMAL":77,
						"TEXCOORD_0":78
					},
					"indices":3,
					"material":0
				}
			]
		},
		{
			"name":"SpawnN_CrateR",
			"primitives":[
				{
					"attributes":{
						"POSITION":79,
						"NORMAL":80,
						"TEXCOORD_0":81
					},
					"indices":3,
					"material":0
				}
			]
		},
		{
			"name":"SpawnN_L",
			"primitives":[
				{
					"attributes":{
						"POSITION":82,
						"NORMAL":83,
						"TEXCOORD_0":84
					},
					"indices":3,
					"material":2
				}
			]
		},
		{
			"name":"SpawnN_R",
			"primitives":[
				{
					"attributes":{
						"POSITION":85,
						"NORMAL":86,
						"TEXCOORD_0":87
					},
					"indices":3,
					"material":2
				}
			]
		},
		{
			"name":"SpawnS_Back",
			"primitives":[
				{
					"attributes":{
						"POSITION":88,
						"NORMAL":89,
						"TEXCOORD_0":90
					},
					"indices":3,
					"material":2
				}
			]
		},
		{
			"name":"SpawnS_CrateL",
			"primitives":[
				{
					"attributes":{
						"POSITION":91,
						"NORMAL":92,
						"TEXCOORD_0":93
					},
					"indices":3,
					"material":0
				}
			]
		},
		{
			"name":"SpawnS_CrateR",
			"primitives":[
				{
					"attributes":{
						"POSITION":94,
						"NORMAL":95,
						"TEXCOORD_0":96
					},
					"indices":3,
					"material":0
				}
			]
		},
		{
			"name":"SpawnS_L",
			"primitives":[
				{
					"attributes":{
						"POSITION":97,
						"NORMAL":98,
						"TEXCOORD_0":99
					},
					"indices":3,
					"material":2
				}
			]
		},
		{
			"name":"SpawnS_R",
			"primitives":[
				{
					"attributes":{
						"POSITION":100,
						"NORMAL":101,
						"TEXCOORD_0":102
					},
					"indices":3,
					"material":2
				}
			]
		},
		{
			"name":"Wall_E",
			"primitives":[
				{
					"attributes":{
						"POSITION":103,
						"NORMAL":104,
						"TEXCOORD_0":105
					},
					"indices":3,
					"material":2
				}
			]
		},
		{
			"name":"Wall_N",
			"primitives":[
				{
					"attributes":{
						"POSITION":106,
						"NORMAL":107,
						"TEXCOORD_0":108
					},
					"indices":3,
					"material":2
				}
			]
		},
		{
			"name":"Wall_S",
			"primitives":[
				{
					"attributes":{
						"POSITION":109,
						"NORMAL":110,
						"TEXCOORD_0":111
					},
					"indices":3,
					"material":2
				}
			]
		},
		{
			"name":"Wall_W",
			"primitives":[
				{
					"attributes":{
						"POSITION":112,
						"NORMAL":113,
						"TEXCOORD_0":114
					},
					"indices":3,
					"material":2
				}
			]
		}
	],
	"textures":[
		{
			"sampler":0,
			"source":0
		},
		{
			"sampler":0,
			"source":1
		},
		{
			"sampler":0,
			"source":2
		},
		{
			"sampler":0,
			"source":3
		}
	],
	"images":[
		{
			"mimeType":"image/png",
			"name":"tex_crate",
			"uri":"tex_crate.png"
		},
		{
			"mimeType":"image/png",
			"name":"tex_ground",
			"uri":"tex_ground.png"
		},
		{
			"mimeType":"image/png",
			"name":"tex_wall",
			"uri":"tex_wall.png"
		},
		{
			"mimeType":"image/png",
			"name":"tex_monument",
			"uri":"tex_monument.png"
		}
	],
	"accessors":[
		{
			"bufferView":0,
			"componentType":5126,
			"count":24,
			"max":[
				-12.5,
				1.0000004768371582,
				6.5
			],
			"min":[
				-13.5,
				4.1523844629409723e-07,
				5.5
			],
			"type":"VEC3"
		},
		{
			"bufferView":1,
			"componentType":5126,
			"count":24,
			"type":"VEC3"
		},
		{
			"bufferView":2,
			"componentType":5126,
			"count":24,
			"type":"VEC2"
		},
		{
			"bufferView":3,
			"componentType":5123,
			"count":36,
			"type":"SCALAR"
		},
		{
			"bufferView":4,
			"componentType":5126,
			"count":24,
			"max":[
				-12.5,
				0.9999995827674866,
				-5.5
			],
			"min":[
				-13.5,
				-4.907363404527132e-07,
				-6.5
			],
			"type":"VEC3"
		},
		{
			"bufferView":5,
			"componentType":5126,
			"count":24,
			"type":"VEC3"
		},
		{
			"bufferView":6,
			"componentType":5126,
			"count":24,
			"type":"VEC2"
		},
		{
			"bufferView":7,
			"componentType":5126,
			"count":24,
			"max":[
				13.5,
				1.0000004768371582,
				6.5
			],
			"min":[
				12.5,
				4.1523844629409723e-07,
				5.5
			],
			"type":"VEC3"
		},
		{
			"bufferView":8,
			"componentType":5126,
			"count":24,
			"type":"VEC3"
		},
		{
			"bufferView":9,
			"componentType":5126,
			"count":24,
			"type":"VEC2"
		},
		{
			"bufferView":10,
			"componentType":5126,
			"count":24,
			"max":[
				13.5,
				0.9999995827674866,
				-5.5
			],
			"min":[
				12.5,
				-4.907363404527132e-07,
				-6.5
			],
			"type":"VEC3"
		},
		{
			"bufferView":11,
			"componentType":5126,
			"count":24,
			"type":"VEC3"
		},
		{
			"bufferView":12,
			"componentType":5126,
			"count":24,
			"type":"VEC2"
		},
		{
			"bufferView":13,
			"componentType":5126,
			"count":24,
			"max":[
				15,
				1.1324684692226583e-06,
				15
			],
			"min":[
				-15,
				-0.20000113546848297,
				-15
			],
			"type":"VEC3"
		},
		{
			"bufferView":14,
			"componentType":5126,
			"count":24,
			"type":"VEC3"
		},
		{
			"bufferView":15,
			"componentType":5126,
			"count":24,
			"type":"VEC2"
		},
		{
			"bufferView":16,
			"componentType":5126,
			"count":24,
			"max":[
				6,
				1.1000005006790161,
				6.199999809265137
			],
			"min":[
				2,
				4.3788784864773334e-07,
				5.800000190734863
			],
			"type":"VEC3"
		},
		{
			"bufferView":17,
			"componentType":5126,
			"count":24,
			"type":"VEC3"
		},
		{
			"bufferView":18,
			"componentType":5126,
			"count":24,
			"type":"VEC2"
		},
		{
			"bufferView":19,
			"componentType":5126,
			"count":24,
			"max":[
				6.199999809265137,
				1.1000005006790161,
				6
			],
			"min":[
				5.800000190734863,
				1.5099580252808664e-07,
				1.9999998807907104
			],
			"type":"VEC3"
		},
		{
			"bufferView":20,
			"componentType":5126,
			"count":24,
			"type":"VEC3"
		},
		{
			"bufferView":21,
			"componentType":5126,
			"count":24,
			"type":"VEC2"
		},
		{
			"bufferView":22,
			"componentType":5126,
			"count":24,
			"max":[
				-2,
				1.1000005006790161,
				6.199999809265137
			],
			"min":[
				-6,
				4.3788784864773334e-07,
				5.800000190734863
			],
			"type":"VEC3"
		},
		{
			"bufferView":23,
			"componentType":5126,
			"count":24,
			"type":"VEC3"
		},
		{
			"bufferView":24,
			"componentType":5126,
			"count":24,
			"type":"VEC2"
		},
		{
			"bufferView":25,
			"componentType":5126,
			"count":24,
			"max":[
				-5.800000190734863,
				1.1000005006790161,
				6
			],
			"min":[
				-6.199999809265137,
				1.5099580252808664e-07,
				1.9999998807907104
			],
			"type":"VEC3"
		},
		{
			"bufferView":26,
			"componentType":5126,
			"count":24,
			"type":"VEC3"
		},
		{
			"bufferView":27,
			"componentType":5126,
			"count":24,
			"type":"VEC2"
		},
		{
			"bufferView":28,
			"componentType":5126,
			"count":24,
			"max":[
				6,
				1.0999995470046997,
				-5.800000190734863
			],
			"min":[
				2,
				-4.680869665207865e-07,
				-6.199999809265137
			],
			"type":"VEC3"
		},
		{
			"bufferView":29,
			"componentType":5126,
			"count":24,
			"type":"VEC3"
		},
		{
			"bufferView":30,
			"componentType":5126,
			"count":24,
			"type":"VEC2"
		},
		{
			"bufferView":31,
			"componentType":5126,
			"count":24,
			"max":[
				6.199999809265137,
				1.0999999046325684,
				-2
			],
			"min":[
				5.800000190734863,
				-4.5298742179511464e-07,
				-6
			],
			"type":"VEC3"
		},
		{
			"bufferView":32,
			"componentType":5126,
			"count":24,
			"type":"VEC3"
		},
		{
			"bufferView":33,
			"componentType":5126,
			"count":24,
			"type":"VEC2"
		},
		{
			"bufferView":34,
			"componentType":5126,
			"count":24,
			"max":[
				-2,
				1.0999995470046997,
				-5.800000190734863
			],
			"min":[
				-6,
				-4.680869665207865e-07,
				-6.199999809265137
			],
			"type":"VEC3"
		},
		{
			"bufferView":35,
			"componentType":5126,
			"count":24,
			"type":"VEC3"
		},
		{
			"bufferView":36,
			"componentType":5126,
			"count":24,
			"type":"VEC2"
		},
		{
			"bufferView":37,
			"componentType":5126,
			"count":24,
			"max":[
				-5.800000190734863,
				1.0999999046325684,
				-2
			],
			"min":[
				-6.199999809265137,
				-4.5298742179511464e-07,
				-6
			],
			"type":"VEC3"
		},
		{
			"bufferView":38,
			"componentType":5126,
			"count":24,
			"type":"VEC3"
		},
		{
			"bufferView":39,
			"componentType":5126,
			"count":24,
			"type":"VEC2"
		},
		{
			"bufferView":40,
			"componentType":5126,
			"count":24,
			"max":[
				-1,
				3.5000007152557373,
				8.25
			],
			"min":[
				-9,
				5.851087507835473e-07,
				7.749999523162842
			],
			"type":"VEC3"
		},
		{
			"bufferView":41,
			"componentType":5126,
			"count":24,
			"type":"VEC3"
		},
		{
			"bufferView":42,
			"componentType":5126,
			"count":24,
			"type":"VEC2"
		},
		{
			"bufferView":43,
			"componentType":5126,
			"count":24,
			"max":[
				9,
				3.5000007152557373,
				8.25
			],
			"min":[
				1,
				5.851087507835473e-07,
				7.749999523162842
			],
			"type":"VEC3"
		},
		{
			"bufferView":44,
			"componentType":5126,
			"count":24,
			"type":"VEC3"
		},
		{
			"bufferView":45,
			"componentType":5126,
			"count":24,
			"type":"VEC2"
		},
		{
			"bufferView":46,
			"componentType":5126,
			"count":24,
			"max":[
				-1,
				3.499999523162842,
				-7.75
			],
			"min":[
				-9,
				-6.228576694411458e-07,
				-8.25
			],
			"type":"VEC3"
		},
		{
			"bufferView":47,
			"componentType":5126,
			"count":24,
			"type":"VEC3"
		},
		{
			"bufferView":48,
			"componentType":5126,
			"count":24,
			"type":"VEC2"
		},
		{
			"bufferView":49,
			"componentType":5126,
			"count":24,
			"max":[
				9,
				3.499999523162842,
				-7.75
			],
			"min":[
				1,
				-6.228576694411458e-07,
				-8.25
			],
			"type":"VEC3"
		},
		{
			"bufferView":50,
			"componentType":5126,
			"count":24,
			"type":"VEC3"
		},
		{
			"bufferView":51,
			"componentType":5126,
			"count":24,
			"type":"VEC2"
		},
		{
			"bufferView":52,
			"componentType":5126,
			"count":24,
			"max":[
				4.199999809265137,
				1.100000262260437,
				3
			],
			"min":[
				3.799999952316284,
				-2.2649371089755732e-07,
				-3
			],
			"type":"VEC3"
		},
		{
			"bufferView":53,
			"componentType":5126,
			"count":24,
			"type":"VEC3"
		},
		{
			"bufferView":54,
			"componentType":5126,
			"count":24,
			"type":"VEC2"
		},
		{
			"bufferView":55,
			"componentType":5126,
			"count":24,
			"max":[
				3,
				1.1000003814697266,
				4.199999809265137
			],
			"min":[
				-3,
				2.86892031908792e-07,
				3.799999952316284
			],
			"type":"VEC3"
		},
		{
			"bufferView":56,
			"componentType":5126,
			"count":24,
			"type":"VEC3"
		},
		{
			"bufferView":57,
			"componentType":5126,
			"count":24,
			"type":"VEC2"
		},
		{
			"bufferView":58,
			"componentType":5126,
			"count":24,
			"max":[
				3,
				1.0999997854232788,
				-3.799999952316284
			],
			"min":[
				-3,
				-3.170911782035546e-07,
				-4.199999809265137
			],
			"type":"VEC3"
		},
		{
			"bufferView":59,
			"componentType":5126,
			"count":24,
			"type":"VEC3"
		},
		{
			"bufferView":60,
			"componentType":5126,
			"count":24,
			"type":"VEC2"
		},
		{
			"bufferView":61,
			"componentType":5126,
			"count":24,
			"max":[
				-3.799999952316284,
				1.100000262260437,
				3
			],
			"min":[
				-4.199999809265137,
				-2.2649371089755732e-07,
				-3
			],
			"type":"VEC3"
		},
		{
			"bufferView":62,
			"componentType":5126,
			"count":24,
			"type":"VEC3"
		},
		{
			"bufferView":63,
			"componentType":5126,
			"count":24,
			"type":"VEC2"
		},
		{
			"bufferView":64,
			"componentType":5126,
			"count":24,
			"max":[
				2,
				5,
				2
			],
			"min":[
				-2,
				-1.5099580252808664e-07,
				-2.000000476837158
			],
			"type":"VEC3"
		},
		{
			"bufferView":65,
			"componentType":5126,
			"count":24,
			"type":"VEC3"
		},
		{
			"bufferView":66,
			"componentType":5126,
			"count":24,
			"type":"VEC2"
		},
		{
			"bufferView":67,
			"componentType":5126,
			"count":24,
			"max":[
				-10.75,
				3.500000476837158,
				5
			],
			"min":[
				-11.25,
				-3.7748949921478925e-07,
				-5.000000476837158
			],
			"type":"VEC3"
		},
		{
			"bufferView":68,
			"componentType":5126,
			"count":24,
			"type":"VEC3"
		},
		{
			"bufferView":69,
			"componentType":5126,
			"count":24,
			"type":"VEC2"
		},
		{
			"bufferView":70,
			"componentType":5126,
			"count":24,
			"max":[
				11.25,
				3.500000476837158,
				5
			],
			"min":[
				10.75,
				-3.7748949921478925e-07,
				-5.000000476837158
			],
			"type":"VEC3"
		},
		{
			"bufferView":71,
			"componentType":5126,
			"count":24,
			"type":"VEC3"
		},
		{
			"bufferView":72,
			"componentType":5126,
			"count":24,
			"type":"VEC2"
		},
		{
			"bufferView":73,
			"componentType":5126,
			"count":24,
			"max":[
				5,
				1.1000009775161743,
				12.199999809265137
			],
			"min":[
				-5,
				8.908752420211385e-07,
				11.800000190734863
			],
			"type":"VEC3"
		},
		{
			"bufferView":74,
			"componentType":5126,
			"count":24,
			"type":"VEC3"
		},
		{
			"bufferView":75,
			"componentType":5126,
			"count":24,
			"type":"VEC2"
		},
		{
			"bufferView":76,
			"componentType":5126,
			"count":24,
			"max":[
				-1.5,
				1.0000008344650269,
				10.5
			],
			"min":[
				-2.5,
				7.172300797719799e-07,
				9.5
			],
			"type":"VEC3"
		},
		{
			"bufferView":77,
			"componentType":5126,
			"count":24,
			"type":"VEC3"
		},
		{
			"bufferView":78,
			"componentType":5126,
			"count":24,
			"type":"VEC2"
		},
		{
			"bufferView":79,
			"componentType":5126,
			"count":24,
			"max":[
				2.5,
				1.0000008344650269,
				10.5
			],
			"min":[
				1.5,
				7.172300797719799e-07,
				9.5
			],
			"type":"VEC3"
		},
		{
			"bufferView":80,
			"componentType":5126,
			"count":24,
			"type":"VEC3"
		},
		{
			"bufferView":81,
			"componentType":5126,
			"count":24,
			"type":"VEC2"
		},
		{
			"bufferView":82,
			"componentType":5126,
			"count":24,
			"max":[
				-4.800000190734863,
				1.1000009775161743,
				12
			],
			"min":[
				-5.199999809265137,
				6.039832101123466e-07,
				8
			],
			"type":"VEC3"
		},
		{
			"bufferView":83,
			"componentType":5126,
			"count":24,
			"type":"VEC3"
		},
		{
			"bufferView":84,
			"componentType":5126,
			"count":24,
			"type":"VEC2"
		},
		{
			"bufferView":85,
			"componentType":5126,
			"count":24,
			"max":[
				5.199999809265137,
				1.1000009775161743,
				12
			],
			"min":[
				4.800000190734863,
				6.039832101123466e-07,
				8
			],
			"type":"VEC3"
		},
		{
			"bufferView":86,
			"componentType":5126,
			"count":24,
			"type":"VEC3"
		},
		{
			"bufferView":87,
			"componentType":5126,
			"count":24,
			"type":"VEC2"
		},
		{
			"bufferView":88,
			"componentType":5126,
			"count":24,
			"max":[
				5,
				1.099999189376831,
				-11.800000190734863
			],
			"min":[
				-5,
				-9.210743883159012e-07,
				-12.199999809265137
			],
			"type":"VEC3"
		},
		{
			"bufferView":89,
			"componentType":5126,
			"count":24,
			"type":"VEC3"
		},
		{
			"bufferView":90,
			"componentType":5126,
			"count":24,
			"type":"VEC2"
		},
		{
			"bufferView":91,
			"componentType":5126,
			"count":24,
			"max":[
				-1.5,
				0.9999992847442627,
				-9.5
			],
			"min":[
				-2.5,
				-7.927279739305959e-07,
				-10.5
			],
			"type":"VEC3"
		},
		{
			"bufferView":92,
			"componentType":5126,
			"count":24,
			"type":"VEC3"
		},
		{
			"bufferView":93,
			"componentType":5126,
			"count":24,
			"type":"VEC2"
		},
		{
			"bufferView":94,
			"componentType":5126,
			"count":24,
			"max":[
				2.5,
				0.9999992847442627,
				-9.5
			],
			"min":[
				1.5,
				-7.927279739305959e-07,
				-10.5
			],
			"type":"VEC3"
		},
		{
			"bufferView":95,
			"componentType":5126,
			"count":24,
			"type":"VEC3"
		},
		{
			"bufferView":96,
			"componentType":5126,
			"count":24,
			"type":"VEC2"
		},
		{
			"bufferView":97,
			"componentType":5126,
			"count":24,
			"max":[
				-4.800000190734863,
				1.0999994277954102,
				-8
			],
			"min":[
				-5.199999809265137,
				-9.059748435902293e-07,
				-12
			],
			"type":"VEC3"
		},
		{
			"bufferView":98,
			"componentType":5126,
			"count":24,
			"type":"VEC3"
		},
		{
			"bufferView":99,
			"componentType":5126,
			"count":24,
			"type":"VEC2"
		},
		{
			"bufferView":100,
			"componentType":5126,
			"count":24,
			"max":[
				5.199999809265137,
				1.0999994277954102,
				-8
			],
			"min":[
				4.800000190734863,
				-9.059748435902293e-07,
				-12
			],
			"type":"VEC3"
		},
		{
			"bufferView":101,
			"componentType":5126,
			"count":24,
			"type":"VEC3"
		},
		{
			"bufferView":102,
			"componentType":5126,
			"count":24,
			"type":"VEC2"
		},
		{
			"bufferView":103,
			"componentType":5126,
			"count":24,
			"max":[
				15,
				6.000000953674316,
				15
			],
			"min":[
				14.5,
				-1.1324684692226583e-06,
				-15
			],
			"type":"VEC3"
		},
		{
			"bufferView":104,
			"componentType":5126,
			"count":24,
			"type":"VEC3"
		},
		{
			"bufferView":105,
			"componentType":5126,
			"count":24,
			"type":"VEC2"
		},
		{
			"bufferView":106,
			"componentType":5126,
			"count":24,
			"max":[
				15,
				6.000000953674316,
				15
			],
			"min":[
				-15,
				1.0947195505650598e-06,
				14.5
			],
			"type":"VEC3"
		},
		{
			"bufferView":107,
			"componentType":5126,
			"count":24,
			"type":"VEC3"
		},
		{
			"bufferView":108,
			"componentType":5126,
			"count":24,
			"type":"VEC2"
		},
		{
			"bufferView":109,
			"componentType":5126,
			"count":24,
			"max":[
				15,
				5.999999046325684,
				-14.5
			],
			"min":[
				-15,
				-1.1324684692226583e-06,
				-15
			],
			"type":"VEC3"
		},
		{
			"bufferView":110,
			"componentType":5126,
			"count":24,
			"type":"VEC3"
		},
		{
			"bufferView":111,
			"componentType":5126,
			"count":24,
			"type":"VEC2"
		},
		{
			"bufferView":112,
			"componentType":5126,
			"count":24,
			"max":[
				-14.5,
				6.000000953674316,
				15
			],
			"min":[
				-15,
				-1.1324684692226583e-06,
				-15
			],
			"type":"VEC3"
		},
		{
			"bufferView":113,
			"componentType":5126,
			"count":24,
			"type":"VEC3"
		},
		{
			"bufferView":114,
			"componentType":5126,
			"count":24,
			"type":"VEC2"
		}
	],
	"bufferViews":[
		{
			"buffer":0,
			"byteLength":288,
			"byteOffset":0,
			"target":34962
		},
		{
			"buffer":0,
			"byteLength":288,
			"byteOffset":288,
			"target":34962
		},
		{
			"buffer":0,
			"byteLength":192,
			"byteOffset":576,
			"target":34962
		},
		{
			"buffer":0,
			"byteLength":72,
			"byteOffset":768,
			"target":34963
		},
		{
			"buffer":0,
			"byteLength":288,
			"byteOffset":840,
			"target":34962
		},
		{
			"buffer":0,
			"byteLength":288,
			"byteOffset":1128,
			"target":34962
		},
		{
			"buffer":0,
			"byteLength":192,
			"byteOffset":1416,
			"target":34962
		},
		{
			"buffer":0,
			"byteLength":288,
			"byteOffset":1608,
			"target":34962
		},
		{
			"buffer":0,
			"byteLength":288,
			"byteOffset":1896,
			"target":34962
		},
		{
			"buffer":0,
			"byteLength":192,
			"byteOffset":2184,
			"target":34962
		},
		{
			"buffer":0,
			"byteLength":288,
			"byteOffset":2376,
			"target":34962
		},
		{
			"buffer":0,
			"byteLength":288,
			"byteOffset":2664,
			"target":34962
		},
		{
			"buffer":0,
			"byteLength":192,
			"byteOffset":2952,
			"target":34962
		},
		{
			"buffer":0,
			"byteLength":288,
			"byteOffset":3144,
			"target":34962
		},
		{
			"buffer":0,
			"byteLength":288,
			"byteOffset":3432,
			"target":34962
		},
		{
			"buffer":0,
			"byteLength":192,
			"byteOffset":3720,
			"target":34962
		},
		{
			"buffer":0,
			"byteLength":288,
			"byteOffset":3912,
			"target":34962
		},
		{
			"buffer":0,
			"byteLength":288,
			"byteOffset":4200,
			"target":34962
		},
		{
			"buffer":0,
			"byteLength":192,
			"byteOffset":4488,
			"target":34962
		},
		{
			"buffer":0,
			"byteLength":288,
			"byteOffset":4680,
			"target":34962
		},
		{
			"buffer":0,
			"byteLength":288,
			"byteOffset":4968,
			"target":34962
		},
		{
			"buffer":0,
			"byteLength":192,
			"byteOffset":5256,
			"target":34962
		},
		{
			"buffer":0,
			"byteLength":288,
			"byteOffset":5448,
			"target":34962
		},
		{
			"buffer":0,
			"byteLength":288,
			"byteOffset":5736,
			"target":34962
		},
		{
			"buffer":0,
			"byteLength":192,
			"byteOffset":6024,
			"target":34962
		},
		{
			"buffer":0,
			"byteLength":288,
			"byteOffset":6216,
			"target":34962
		},
		{
			"buffer":0,
			"byteLength":288,
			"byteOffset":6504,
			"target":34962
		},
		{
			"buffer":0,
			"byteLength":192,
			"byteOffset":6792,
			"target":34962
		},
		{
			"buffer":0,
			"byteLength":288,
			"byteOffset":6984,
			"target":34962
		},
		{
			"buffer":0,
			"byteLength":288,
			"byteOffset":7272,
			"target":34962
		},
		{
			"buffer":0,
			"byteLength":192,
			"byteOffset":7560,
			"target":34962
		},
		{
			"buffer":0,
			"byteLength":288,
			"byteOffset":7752,
			"target":34962
		},
		{
			"buffer":0,
			"byteLength":288,
			"byteOffset":8040,
			"target":34962
		},
		{
			"buffer":0,
			"byteLength":192,
			"byteOffset":8328,
			"target":34962
		},
		{
			"buffer":0,
			"byteLength":288,
			"byteOffset":8520,
			"target":34962
		},
		{
			"buffer":0,
			"byteLength":288,
			"byteOffset":8808,
			"target":34962
		},
		{
			"buffer":0,
			"byteLength":192,
			"byteOffset":9096,
			"target":34962
		},
		{
			"buffer":0,
			"byteLength":288,
			"byteOffset":9288,
			"target":34962
		},
		{
			"buffer":0,
			"byteLength":288,
			"byteOffset":9576,
			"target":34962
		},
		{
			"buffer":0,
			"byteLength":192,
			"byteOffset":9864,
			"target":34962
		},
		{
			"buffer":0,
			"byteLength":288,
			"byteOffset":10056,
			"target":34962
		},
		{
			"buffer":0,
			"byteLength":288,
			"byteOffset":10344,
			"target":34962
		},
		{
			"buffer":0,
			"byteLength":192,
			"byteOffset":10632,
			"target":34962
		},
		{
			"buffer":0,
			"byteLength":288,
			"byteOffset":10824,
			"target":34962
		},
		{
			"buffer":0,
			"byteLength":288,
			"byteOffset":11112,
			"target":34962
		},
		{
			"buffer":0,
			"byteLength":192,
			"byteOffset":11400,
			"target":34962
		},
		{
			"buffer":0,
			"byteLength":288,
			"byteOffset":11592,
			"target":34962
		},
		{
			"buffer":0,
			"byteLength":288,
			"byteOffset":11880,
			"target":34962
		},
		{
			"buffer":0,
			"byteLength":192,
			"byteOffset":12168,
			"target":34962
		},
		{
			"buffer":0,
			"byteLength":288,
			"byteOffset":12360,
			"target":34962
		},
		{
			"buffer":0,
			"byteLength":288,
			"byteOffset":12648,
			"target":34962
		},
		{
			"buffer":0,
			"byteLength":192,
			"byteOffset":12936,
			"target":34962
		},
		{
			"buffer":0,
			"byteLength":288,
			"byteOffset":13128,
			"target":34962
		},
		{
			"buffer":0,
			"byteLength":288,
			"byteOffset":13416,
			"target":34962
		},
		{
			"buffer":0,
			"byteLength":192,
			"byteOffset":13704,
			"target":34962
		},
		{
			"buffer":0,
			"byteLength":288,
			"byteOffset":13896,
			"target":34962
		},
		{
			"buffer":0,
			"byteLength":288,
			"byteOffset":14184,
			"target":34962
		},
		{
			"buffer":0,
			"byteLength":192,
			"byteOffset":14472,
			"target":34962
		},
		{
			"buffer":0,
			"byteLength":288,
			"byteOffset":14664,
			"target":34962
		},
		{
			"buffer":0,
			"byteLength":288,
			"byteOffset":14952,
			"target":34962
		},
		{
			"buffer":0,
			"byteLength":192,
			"byteOffset":15240,
			"target":34962
		},
		{
			"buffer":0,
			"byteLength":288,
			"byteOffset":15432,
			"target":34962
		},
		{
			"buffer":0,
			"byteLength":288,
			"byteOffset":15720,
			"target":34962
		},
		{
			"buffer":0,
			"byteLength":192,
			"byteOffset":16008,
			"target":34962
		},
		{
			"buffer":0,
			"byteLength":288,
			"byteOffset":16200,
			"target":34962
		},
		{
			"buffer":0,
			"byteLength":288,
			"byteOffset":16488,
			"target":34962
		},
		{
			"buffer":0,
			"byteLength":192,
			"byteOffset":16776,
			"target":34962
		},
		{
			"buffer":0,
			"byteLength":288,
			"byteOffset":16968,
			"target":34962
		},
		{
			"buffer":0,
			"byteLength":288,
			"byteOffset":17256,
			"target":34962
		},
		{
			"buffer":0,
			"byteLength":192,
			"byteOffset":17544,
			"target":34962
		},
		{
			"buffer":0,
			"byteLength":288,
			"byteOffset":17736,
			"target":34962
		},
		{
			"buffer":0,
			"byteLength":288,
			"byteOffset":18024,
			"target":34962
		},
		{
			"buffer":0,
			"byteLength":192,
			"byteOffset":18312,
			"target":34962
		},
		{
			"buffer":0,
			"byteLength":288,
			"byteOffset":18504,
			"target":34962
		},
		{
			"buffer":0,
			"byteLength":288,
			"byteOffset":18792,
			"target":34962
		},
		{
			"buffer":0,
			"byteLength":192,
			"byteOffset":19080,
			"target":34962
		},
		{
			"buffer":0,
			"byteLength":288,
			"byteOffset":19272,
			"target":34962
		},
		{
			"buffer":0,
			"byteLength":288,
			"byteOffset":19560,
			"target":34962
		},
		{
			"buffer":0,
			"byteLength":192,
			"byteOffset":19848,
			"target":34962
		},
		{
			"buffer":0,
			"byteLength":288,
			"byteOffset":20040,
			"target":34962
		},
		{
			"buffer":0,
			"byteLength":288,
			"byteOffset":20328,
			"target":34962
		},
		{
			"buffer":0,
			"byteLength":192,
			"byteOffset":20616,
			"target":34962
		},
		{
			"buffer":0,
			"byteLength":288,
			"byteOffset":20808,
			"target":34962
		},
		{
			"buffer":0,
			"byteLength":288,
			"byteOffset":21096,
			"target":34962
		},
		{
			"buffer":0,
			"byteLength":192,
			"byteOffset":21384,
			"target":34962
		},
		{
			"buffer":0,
			"byteLength":288,
			"byteOffset":21576,
			"target":34962
		},
		{
			"buffer":0,
			"byteLength":288,
			"byteOffset":21864,
			"target":34962
		},
		{
			"buffer":0,
			"byteLength":192,
			"byteOffset":22152,
			"target":34962
		},
		{
			"buffer":0,
			"byteLength":288,
			"byteOffset":22344,
			"target":34962
		},
		{
			"buffer":0,
			"byteLength":288,
			"byteOffset":22632,
			"target":34962
		},
		{
			"buffer":0,
			"byteLength":192,
			"byteOffset":22920,
			"target":34962
		},
		{
			"buffer":0,
			"byteLength":288,
			"byteOffset":23112,
			"target":34962
		},
		{
			"buffer":0,
			"byteLength":288,
			"byteOffset":23400,
			"target":34962
		},
		{
			"buffer":0,
			"byteLength":192,
			"byteOffset":23688,
			"target":34962
		},
		{
			"buffer":0,
			"byteLength":288,
			"byteOffset":23880,
			"target":34962
		},
		{
			"buffer":0,
			"byteLength":288,
			"byteOffset":24168,
			"target":34962
		},
		{
			"buffer":0,
			"byteLength":192,
			"byteOffset":24456,
			"target":34962
		},
		{
			"buffer":0,
			"byteLength":288,
			"byteOffset":24648,
			"target":34962
		},
		{
			"buffer":0,
			"byteLength":288,
			"byteOffset":24936,
			"target":34962
		},
		{
			"buffer":0,
			"byteLength":192,
			"byteOffset":25224,
			"target":34962
		},
		{
			"buffer":0,
			"byteLength":288,
			"byteOffset":25416,
			"target":34962
		},
		{
			"buffer":0,
			"byteLength":288,
			"byteOffset":25704,
			"target":34962
		},
		{
			"buffer":0,
			"byteLength":192,
			"byteOffset":25992,
			"target":34962
		},
		{
			"buffer":0,
			"byteLength":288,
			"byteOffset":26184,
			"target":34962
		},
		{
			"buffer":0,
			"byteLength":288,
			"byteOffset":26472,
			"target":34962
		},
		{
			"buffer":0,
			"byteLength":192,
			"byteOffset":26760,
			"target":34962
		},
		{
			"buffer":0,
			"byteLength":288,
			"byteOffset":26952,
			"target":34962
		},
		{
			"buffer":0,
			"byteLength":288,
			"byteOffset":27240,
			"target":34962
		},
		{
			"buffer":0,
			"byteLength":192,
			"byteOffset":27528,
			"target":34962
		},
		{
			"buffer":0,
			"byteLength":288,
			"byteOffset":27720,
			"target":34962
		},
		{
			"buffer":0,
			"byteLength":288,
			"byteOffset":28008,
			"target":34962
		},
		{
			"buffer":0,
			"byteLength":192,
			"byteOffset":28296,
			"target":34962
		},
		{
			"buffer":0,
			"byteLength":288,
			"byteOffset":28488,
			"target":34962
		},
		{
			"buffer":0,
			"byteLength":288,
			"byteOffset":28776,
			"target":34962
		},
		{
			"buffer":0,
			"byteLength":192,
			"byteOffset":29064,
			"target":34962
		}
	],
	"samplers":[
		{
			"magFilter":9729,
			"minFilter":9987
		}
	],
	"buffers":[
		{
			"byteLength":29256,
			"uri":"lobby.bin"
		}
	]
}
